{
  "accessors": [
    {
      "bufferView": 2,
      "componentType": 5126,
      "count": 2087,
      "max": [
        19.802799224853516,
        9.780599594116211,
        227.47369384765625
      ],
      "min": [
        -19.783300399780273,
        -32.5463981628418,
        171.8916015625
      ],
      "type": "VEC3"
    },
    {
      "bufferView": 2,
      "byteOffset": 25044,
      "componentType": 5126,
      "count": 2087,
      "max": [
        0.9996141791343689,
        0.9985876083374023,
        1.0
      ],
      "min": [
        -0.9996141791343689,
        -0.9998621940612793,
        -0.9999996423721313
      ],
      "type": "VEC3"
    },
    {
      "bufferView": 1,
      "componentType": 5126,
      "count": 2087,
      "max": [
        0.9940999746322632,
        0.9950000047683716
      ],
      "min": [
        0.003599999938160181,
        0.00930000003427267
      ],
      "type": "VEC2"
    },
    {
      "bufferView": 0,
      "componentType": 5125,
      "count": 9999,
      "type": "SCALAR"
    },
    {
      "bufferView": 2,
      "byteOffset": 50088,
      "componentType": 5126,
      "count": 129,
      "max": [
        19.802799224853516,
        9.436599731445313,
        215.625
      ],
      "min": [
        -4.120500087738037,
        -32.01020050048828,
        178.54339599609375
      ],
      "type": "VEC3"
    },
    {
      "bufferView": 2,
      "byteOffset": 51636,
      "componentType": 5126,
      "count": 129,
      "max": [
        0.9924853444099426,
        0.9130034446716309,
        0.6904034614562988
      ],
      "min": [
        -0.22328977286815643,
        -0.9658557772636414,
        -0.652509331703186
      ],
      "type": "VEC3"
    },
    {
      "bufferView": 1,
      "byteOffset": 16696,
      "componentType": 5126,
      "count": 129,
      "max": [
        0.9775000214576721,
        0.9850999712944031
      ],
      "min": [
        0.3264000117778778,
        0.22750000655651093
      ],
      "type": "VEC2"
    },
    {
      "bufferView": 0,
      "byteOffset": 39996,
      "componentType": 5125,
      "count": 417,
      "type": "SCALAR"
    },
    {
      "bufferView": 2,
      "byteOffset": 53184,
      "componentType": 5126,
      "count": 2171,
      "max": [
        73.44419860839844,
        30.645999908447266,
        178.80990600585938
      ],
      "min": [
        -73.42459869384766,
        -28.471399307250977,
        0.25099998712539673
      ],
      "type": "VEC3"
    },
    {
      "bufferView": 2,
      "byteOffset": 79236,
      "componentType": 5126,
      "count": 2171,
      "max": [
        1.0,
        0.9999536275863647,
        0.9887449741363525
      ],
      "min": [
        -1.0,
        -0.99969083070755,
        -1.0
      ],
      "type": "VEC3"
    },
    {
      "bufferView": 1,
      "byteOffset": 17728,
      "componentType": 5126,
      "count": 2171,
      "max": [
        0.9951000213623047,
        0.9957000017166138
      ],
      "min": [
        0.0035000001080334187,
        0.004900000058114529
      ],
      "type": "VEC2"
    },
    {
      "bufferView": 0,
      "byteOffset": 41664,
      "componentType": 5125,
      "count": 9999,
      "type": "SCALAR"
    },
    {
      "bufferView": 2,
      "byteOffset": 105288,
      "componentType": 5126,
      "count": 1380,
      "max": [
        38.43730163574219,
        33.770198822021484,
        196.41909790039063
      ],
      "min": [
        -66.28450012207031,
        -34.442501068115234,
        0.25099998712539673
      ],
      "type": "VEC3"
    },
    {
      "bufferView": 2,
      "byteOffset": 121848,
      "componentType": 5126,
      "count": 1380,
      "max": [
        1.0,
        0.9994461536407471,
        0.9999988079071045
      ],
      "min": [
        -1.0,
        -0.9996270537376404,
        -1.0
      ],
      "type": "VEC3"
    },
    {
      "bufferView": 1,
      "byteOffset": 35096,
      "componentType": 5126,
      "count": 1380,
      "max": [
        0.9932000041007996,
        0.9715999960899353
      ],
      "min": [
        0.005499999970197678,
        0.002899999963119626
      ],
      "type": "VEC2"
    },
    {
      "bufferView": 0,
      "byteOffset": 81660,
      "componentType": 5125,
      "count": 6261,
      "type": "SCALAR"
    },
    {
      "bufferView": 2,
      "byteOffset": 138408,
      "componentType": 5126,
      "count": 91,
      "max": [
        10.234800338745117,
        -23.507400512695313,
        210.09669494628906
      ],
      "min": [
        -10.215299606323242,
        -26.00160026550293,
        206.36680603027344
      ],
      "type": "VEC3"
    },
    {
      "bufferView": 2,
      "byteOffset": 139500,
      "componentType": 5126,
      "count": 91,
      "max": [
        0.7123247981071472,
        -0.6844941973686218,
        0.08180258423089981
      ],
      "min": [
        -0.691534161567688,
        -0.9994935393333435,
        -0.3288884460926056
      ],
      "type": "VEC3"
    },
    {
      "bufferView": 1,
      "byteOffset": 46136,
      "componentType": 5126,
      "count": 91,
      "max": [
        -1.1338000297546387,
        0.6557999849319458
      ],
      "min": [
        -1.9023000001907349,
        0.2930000126361847
      ],
      "type": "VEC2"
    },
    {
      "bufferView": 0,
      "byteOffset": 106704,
      "componentType": 5125,
      "count": 384,
      "type": "SCALAR"
    }
  ],
  "asset": {
    "extras": {
      "author": "Neut2000 (https://sketchfab.com/Neut2000)",
      "license": "CC-BY-4.0 (http://creativecommons.org/licenses/by/4.0/)",
      "source": "https://sketchfab.com/3d-models/disney-infinity-mr-incredible-c922a7282c0a41f3886597d1316cd83b",
      "title": "Disney Infinity Mr Incredible"
    },
    "generator": "Sketchfab-12.67.0",
    "version": "2.0"
  },
  "bufferViews": [
    {
      "buffer": 0,
      "byteLength": 108240,
      "name": "floatBufferViews",
      "target": 34963
    },
    {
      "buffer": 0,
      "byteLength": 46864,
      "byteOffset": 108240,
      "byteStride": 8,
      "name": "floatBufferViews",
      "target": 34962
    },
    {
      "buffer": 0,
      "byteLength": 140592,
      "byteOffset": 155104,
      "byteStride": 12,
      "name": "floatBufferViews",
      "target": 34962
    }
  ],
  "buffers": [
    {
      "byteLength": 295696,
      "uri": "scene.bin"
    }
  ],
  "images": [
    {
      "uri": "textures/Material__57_baseColor.png"
    },
    {
      "uri": "textures/Material__58_baseColor.png"
    },
    {
      "uri": "textures/Material__59_baseColor.png"
    }
  ],
  "materials": [
    {
      "doubleSided": true,
      "emissiveTexture": {
        "index": 0
      },
      "name": "Material__57",
      "pbrMetallicRoughness": {
        "baseColorTexture": {
          "index": 0
        },
        "metallicFactor": 0.0
      }
    },
    {
      "doubleSided": true,
      "emissiveTexture": {
        "index": 1
      },
      "name": "Material__58",
      "pbrMetallicRoughness": {
        "baseColorTexture": {
          "index": 1
        },
        "metallicFactor": 0.0
      }
    },
    {
      "doubleSided": true,
      "emissiveTexture": {
        "index": 2
      },
      "name": "Material__59",
      "pbrMetallicRoughness": {
        "baseColorTexture": {
          "index": 2
        },
        "metallicFactor": 0.0
      }
    }
  ],
  "meshes": [
    {
      "name": "Object_0",
      "primitives": [
        {
          "attributes": {
            "NORMAL": 1,
            "POSITION": 0,
            "TEXCOORD_0": 2
          },
          "indices": 3,
          "material": 0,
          "mode": 4
        }
      ]
    },
    {
      "name": "Object_1",
      "primitives": [
        {
          "attributes": {
            "NORMAL": 5,
            "POSITION": 4,
            "TEXCOORD_0": 6
          },
          "indices": 7,
          "material": 0,
          "mode": 4
        }
      ]
    },
    {
      "name": "Object_2",
      "primitives": [
        {
          "attributes": {
            "NORMAL": 9,
            "POSITION": 8,
            "TEXCOORD_0": 10
          },
          "indices": 11,
          "material": 1,
          "mode": 4
        }
      ]
    },
    {
      "name": "Object_3",
      "primitives": [
        {
          "attributes": {
            "NORMAL": 13,
            "POSITION": 12,
            "TEXCOORD_0": 14
          },
          "indices": 15,
          "material": 1,
          "mode": 4
        }
      ]
    },
    {
      "name": "Object_4",
      "primitives": [
        {
          "attributes": {
            "NORMAL": 17,
            "POSITION": 16,
            "TEXCOORD_0": 18
          },
          "indices": 19,
          "material": 2,
          "mode": 4
        }
      ]
    }
  ],
  "nodes": [
    {
      "children": [
        1
      ],
      "matrix": [
        1.0,
        0.0,
        0.0,
        0.0,
        0.0,
        2.220446049250313e-16,
        -1.0,
        0.0,
        0.0,
        1.0,
        2.220446049250313e-16,
        0.0,
        0.0,
        0.0,
        0.0,
        1.0
      ],
      "name": "Sketchfab_model"
    },
    {
      "children": [
        2,
        3,
        4,
        5,
        6
      ],
      "name": "Mr. Incredible.obj.cleaner.materialmerger.gles"
    },
    {
      "mesh": 0,
      "name": "Object_2"
    },
    {
      "mesh": 1,
      "name": "Object_3"
    },
    {
      "mesh": 2,
      "name": "Object_4"
    },
    {
      "mesh": 3,
      "name": "Object_5"
    },
    {
      "mesh": 4,
      "name": "Object_6"
    }
  ],
  "samplers": [
    {
      "magFilter": 9729,
      "minFilter": 9987,
      "wrapS": 10497,
      "wrapT": 10497
    }
  ],
  "scene": 0,
  "scenes": [
    {
      "name": "Sketchfab_Scene",
      "nodes": [
        0
      ]
    }
  ],
  "textures": [
    {
      "sampler": 0,
      "source": 0
    },
    {
      "sampler": 0,
      "source": 1
    },
    {
      "sampler": 0,
      "source": 2
    }
  ]
}
