{
  "accessors": [
    {
      "bufferView": 2,
      "componentType": 5126,
      "count": 2158,
      "max": [
        21.793399810791016,
        19.34429931640625,
        156.385498046875
      ],
      "min": [
        -41.69969940185547,
        -24.10700035095215,
        -0.09099999815225601
      ],
      "type": "VEC3"
    },
    {
      "bufferView": 2,
      "byteOffset": 25896,
      "componentType": 5126,
      "count": 2158,
      "max": [
        1.0,
        0.9997877478599548,
        1.0
      ],
      "min": [
        -1.0,
        -1.0,
        -1.0
      ],
      "type": "VEC3"
    },
    {
      "bufferView": 1,
      "componentType": 5126,
      "count": 2158,
      "max": [
        0.9922000169754028,
        0.9973999857902527
      ],
      "min": [
        0.007199999876320362,
        0.0038999998942017555
      ],
      "type": "VEC2"
    },
    {
      "bufferView": 0,
      "componentType": 5125,
      "count": 9999,
      "type": "SCALAR"
    },
    {
      "bufferView": 2,
      "byteOffset": 51792,
      "componentType": 5126,
      "count": 2066,
      "max": [
        41.69969940185547,
        21.661500930786133,
        156.385498046875
      ],
      "min": [
        -35.31990051269531,
        -10.239899635314941,
        8.292799949645996
      ],
      "type": "VEC3"
    },
    {
      "bufferView": 2,
      "byteOffset": 76584,
      "componentType": 5126,
      "count": 2066,
      "max": [
        1.0,
        0.999997615814209,
        0.9989275932312012
      ],
      "min": [
        -1.0,
        -0.9999558925628662,
        -0.9989275932312012
      ],
      "type": "VEC3"
    },
    {
      "bufferView": 1,
      "byteOffset": 17264,
      "componentType": 5126,
      "count": 2066,
      "max": [
        0.9922000169754028,
        0.9973999857902527
      ],
      "min": [
        0.0034000000450760126,
        0.0038999998942017555
      ],
      "type": "VEC2"
    },
    {
      "bufferView": 0,
      "byteOffset": 39996,
      "componentType": 5125,
      "count": 9201,
      "type": "SCALAR"
    },
    {
      "bufferView": 2,
      "byteOffset": 101376,
      "componentType": 5126,
      "count": 1158,
      "max": [
        28.57040023803711,
        18.80929946899414,
        203.0489044189453
      ],
      "min": [
        -28.57040023803711,
        -21.526899337768555,
        152.5814971923828
      ],
      "type": "VEC3"
    },
    {
      "bufferView": 2,
      "byteOffset": 115272,
      "componentType": 5126,
      "count": 1158,
      "max": [
        0.9989227652549744,
        0.9979825615882874,
        0.9998588562011719
      ],
      "min": [
        -0.9989227652549744,
        -0.9999129772186279,
        -1.0
      ],
      "type": "VEC3"
    },
    {
      "bufferView": 1,
      "byteOffset": 33792,
      "componentType": 5126,
      "count": 1158,
      "max": [
        0.9961000084877014,
        0.9894999861717224
      ],
      "min": [
        0.007300000172108412,
        0.004399999976158142
      ],
      "type": "VEC2"
    },
    {
      "bufferView": 0,
      "byteOffset": 76800,
      "componentType": 5125,
      "count": 5826,
      "type": "SCALAR"
    },
    {
      "bufferView": 2,
      "byteOffset": 129168,
      "componentType": 5126,
      "count": 876,
      "max": [
        50.17879867553711,
        50.85770034790039,
        228.02720642089844
      ],
      "min": [
        -50.16059875488281,
        -28.0669002532959,
        128.3907012939453
      ],
      "type": "VEC3"
    },
    {
      "bufferView": 2,
      "byteOffset": 139680,
      "componentType": 5126,
      "count": 876,
      "max": [
        0.99996018409729,
        0.9999061822891235,
        1.0
      ],
      "min": [
        -0.9973533749580383,
        -1.0,
        -1.0
      ],
      "type": "VEC3"
    },
    {
      "bufferView": 1,
      "byteOffset": 43056,
      "componentType": 5126,
      "count": 876,
      "max": [
        0.9937000274658203,
        0.9941999912261963
      ],
      "min": [
        0.004999999888241291,
        0.004900000058114529
      ],
      "type": "VEC2"
    },
    {
      "bufferView": 0,
      "byteOffset": 100104,
      "componentType": 5125,
      "count": 4224,
      "type": "SCALAR"
    },
    {
      "bufferView": 2,
      "byteOffset": 150192,
      "componentType": 5126,
      "count": 106,
      "max": [
        15.802900314331055,
        -11.641200065612793,
        182.87510681152344
      ],
      "min": [
        -15.811400413513184,
        -16.052000045776367,
        173.76980590820313
      ],
      "type": "VEC3"
    },
    {
      "bufferView": 2,
      "byteOffset": 151464,
      "componentType": 5126,
      "count": 106,
      "max": [
        0.75261390209198,
        -0.6498059630393982,
        0.29639315605163574
      ],
      "min": [
        -0.7578069567680359,
        -0.9965561628341675,
        -0.38110023736953735
      ],
      "type": "VEC3"
    },
    {
      "bufferView": 1,
      "byteOffset": 50064,
      "componentType": 5126,
      "count": 106,
      "max": [
        -0.10080000013113022,
        0.7440999746322632
      ],
      "min": [
        -0.8999000191688538,
        0.24899999797344208
      ],
      "type": "VEC2"
    },
    {
      "bufferView": 0,
      "byteOffset": 117000,
      "componentType": 5125,
      "count": 462,
      "type": "SCALAR"
    }
  ],
  "asset": {
    "extras": {
      "author": "Neut2000 (https://sketchfab.com/Neut2000)",
      "license": "CC-BY-4.0 (http://creativecommons.org/licenses/by/4.0/)",
      "source": "https://sketchfab.com/3d-models/disney-infinity-jessie-dc2e01ffd285460ca85a47695626e011",
      "title": "Disney Infinity Jessie"
    },
    "generator": "Sketchfab-12.67.0",
    "version": "2.0"
  },
  "bufferViews": [
    {
      "buffer": 0,
      "byteLength": 118848,
      "name": "floatBufferViews",
      "target": 34963
    },
    {
      "buffer": 0,
      "byteLength": 50912,
      "byteOffset": 118848,
      "byteStride": 8,
      "name": "floatBufferViews",
      "target": 34962
    },
    {
      "buffer": 0,
      "byteLength": 152736,
      "byteOffset": 169760,
      "byteStride": 12,
      "name": "floatBufferViews",
      "target": 34962
    }
  ],
  "buffers": [
    {
      "byteLength": 322496,
      "uri": "scene.bin"
    }
  ],
  "images": [
    {
      "uri": "textures/Material__26_baseColor.png"
    },
    {
      "uri": "textures/Material__27_baseColor.png"
    },
    {
      "uri": "textures/Material__28_baseColor.png"
    },
    {
      "uri": "textures/Material__29_baseColor.png"
    }
  ],
  "materials": [
    {
      "doubleSided": true,
      "emissiveTexture": {
        "index": 0
      },
      "name": "Material__26",
      "pbrMetallicRoughness": {
        "baseColorTexture": {
          "index": 0
        },
        "metallicFactor": 0.0
      }
    },
    {
      "doubleSided": true,
      "emissiveTexture": {
        "index": 1
      },
      "name": "Material__27",
      "pbrMetallicRoughness": {
        "baseColorTexture": {
          "index": 1
        },
        "metallicFactor": 0.0
      }
    },
    {
      "doubleSided": true,
      "emissiveTexture": {
        "index": 2
      },
      "name": "Material__28",
      "pbrMetallicRoughness": {
        "baseColorTexture": {
          "index": 2
        },
        "metallicFactor": 0.0
      }
    },
    {
      "doubleSided": true,
      "emissiveTexture": {
        "index": 3
      },
      "name": "Material__29",
      "pbrMetallicRoughness": {
        "baseColorTexture": {
          "index": 3
        },
        "metallicFactor": 0.0
      }
    }
  ],
  "meshes": [
    {
      "name": "Object_0",
      "primitives": [
        {
          "attributes": {
            "NORMAL": 1,
            "POSITION": 0,
            "TEXCOORD_0": 2
          },
          "indices": 3,
          "material": 0,
          "mode": 4
        }
      ]
    },
    {
      "name": "Object_1",
      "primitives": [
        {
          "attributes": {
            "NORMAL": 5,
            "POSITION": 4,
            "TEXCOORD_0": 6
          },
          "indices": 7,
          "material": 0,
          "mode": 4
        }
      ]
    },
    {
      "name": "Object_2",
      "primitives": [
        {
          "attributes": {
            "NORMAL": 9,
            "POSITION": 8,
            "TEXCOORD_0": 10
          },
          "indices": 11,
          "material": 1,
          "mode": 4
        }
      ]
    },
    {
      "name": "Object_3",
      "primitives": [
        {
          "attributes": {
            "NORMAL": 13,
            "POSITION": 12,
            "TEXCOORD_0": 14
          },
          "indices": 15,
          "material": 2,
          "mode": 4
        }
      ]
    },
    {
      "name": "Object_4",
      "primitives": [
        {
          "attributes": {
            "NORMAL": 17,
            "POSITION": 16,
            "TEXCOORD_0": 18
          },
          "indices": 19,
          "material": 3,
          "mode": 4
        }
      ]
    }
  ],
  "nodes": [
    {
      "children": [
        1
      ],
      "matrix": [
        1.0,
        0.0,
        0.0,
        0.0,
        0.0,
        2.220446049250313e-16,
        -1.0,
        0.0,
        0.0,
        1.0,
        2.220446049250313e-16,
        0.0,
        0.0,
        0.0,
        0.0,
        1.0
      ],
      "name": "Sketchfab_model"
    },
    {
      "children": [
        2,
        3,
        4,
        5,
        6
      ],
      "name": "Jessie.obj.cleaner.materialmerger.gles"
    },
    {
      "mesh": 0,
      "name": "Object_2"
    },
    {
      "mesh": 1,
      "name": "Object_3"
    },
    {
      "mesh": 2,
      "name": "Object_4"
    },
    {
      "mesh": 3,
      "name": "Object_5"
    },
    {
      "mesh": 4,
      "name": "Object_6"
    }
  ],
  "samplers": [
    {
      "magFilter": 9729,
      "minFilter": 9987,
      "wrapS": 10497,
      "wrapT": 10497
    }
  ],
  "scene": 0,
  "scenes": [
    {
      "name": "Sketchfab_Scene",
      "nodes": [
        0
      ]
    }
  ],
  "textures": [
    {
      "sampler": 0,
      "source": 0
    },
    {
      "sampler": 0,
      "source": 1
    },
    {
      "sampler": 0,
      "source": 2
    },
    {
      "sampler": 0,
      "source": 3
    }
  ]
}
