{
  "accessors": [
    {
      "bufferView": 2,
      "componentType": 5126,
      "count": 2202,
      "max": [
        23.55900001525879,
        2.328000068664551,
        104.94190216064453
      ],
      "min": [
        -23.540700912475586,
        -29.178199768066406,
        0.3682999908924103
      ],
      "type": "VEC3"
    },
    {
      "bufferView": 2,
      "byteOffset": 26424,
      "componentType": 5126,
      "count": 2202,
      "max": [
        0.9999561309814453,
        0.9999955892562866,
        1.0
      ],
      "min": [
        -0.9999561309814453,
        -0.9999129772186279,
        -0.9999996423721313
      ],
      "type": "VEC3"
    },
    {
      "bufferView": 1,
      "componentType": 5126,
      "count": 2202,
      "max": [
        0.9628999829292297,
        0.9765999913215637
      ],
      "min": [
        0.010900000110268593,
        0.02930000051856041
      ],
      "type": "VEC2"
    },
    {
      "bufferView": 0,
      "componentType": 5125,
      "count": 9999,
      "type": "SCALAR"
    },
    {
      "bufferView": 2,
      "byteOffset": 52848,
      "componentType": 5126,
      "count": 2117,
      "max": [
        45.80720138549805,
        -0.4948999881744385,
        114.83329772949219
      ],
      "min": [
        -17.636699676513672,
        -29.34160041809082,
        28.425100326538086
      ],
      "type": "VEC3"
    },
    {
      "bufferView": 2,
      "byteOffset": 78252,
      "componentType": 5126,
      "count": 2117,
      "max": [
        0.9999994039535522,
        0.9989129900932312,
        0.9999250173568726
      ],
      "min": [
        -0.9999994039535522,
        -0.999984860420227,
        -0.9999979734420776
      ],
      "type": "VEC3"
    },
    {
      "bufferView": 1,
      "byteOffset": 17616,
      "componentType": 5126,
      "count": 2117,
      "max": [
        0.9272000193595886,
        0.9854000210762024
      ],
      "min": [
        0.01889999955892563,
        0.030300000682473183
      ],
      "type": "VEC2"
    },
    {
      "bufferView": 0,
      "byteOffset": 39996,
      "componentType": 5125,
      "count": 9999,
      "type": "SCALAR"
    },
    {
      "bufferView": 2,
      "byteOffset": 103656,
      "componentType": 5126,
      "count": 1676,
      "max": [
        39.115501403808594,
        18.503400802612305,
        124.13009643554688
      ],
      "min": [
        -45.78889846801758,
        -28.129499435424805,
        0.36820000410079956
      ],
      "type": "VEC3"
    },
    {
      "bufferView": 2,
      "byteOffset": 123768,
      "componentType": 5126,
      "count": 1676,
      "max": [
        0.9999970197677612,
        0.9999638795852661,
        1.0
      ],
      "min": [
        -0.9999680519104004,
        -0.9999794960021973,
        -0.9999960660934448
      ],
      "type": "VEC3"
    },
    {
      "bufferView": 1,
      "byteOffset": 34552,
      "componentType": 5126,
      "count": 1676,
      "max": [
        0.9624000191688538,
        0.9854999780654907
      ],
      "min": [
        0.04600000008940697,
        0.015599999576807022
      ],
      "type": "VEC2"
    },
    {
      "bufferView": 0,
      "byteOffset": 79992,
      "componentType": 5125,
      "count": 7950,
      "type": "SCALAR"
    },
    {
      "bufferView": 2,
      "byteOffset": 143880,
      "componentType": 5126,
      "count": 141,
      "max": [
        12.48330020904541,
        -19.817800521850586,
        97.25900268554688
      ],
      "min": [
        -12.422100067138672,
        -25.673900604248047,
        90.12519836425781
      ],
      "type": "VEC3"
    },
    {
      "bufferView": 2,
      "byteOffset": 145572,
      "componentType": 5126,
      "count": 141,
      "max": [
        0.9143735766410828,
        0.05930221453309059,
        0.5368261933326721
      ],
      "min": [
        -0.9414088726043701,
        -0.9984681010246277,
        -0.8000298738479614
      ],
      "type": "VEC3"
    },
    {
      "bufferView": 1,
      "byteOffset": 47960,
      "componentType": 5126,
      "count": 141,
      "max": [
        1.1670000553131104,
        0.8227999806404114
      ],
      "min": [
        -0.19699999690055847,
        0.16110000014305115
      ],
      "type": "VEC2"
    },
    {
      "bufferView": 0,
      "byteOffset": 111792,
      "componentType": 5125,
      "count": 672,
      "type": "SCALAR"
    }
  ],
  "asset": {
    "extras": {
      "author": "Neut2000 (https://sketchfab.com/Neut2000)",
      "license": "CC-BY-4.0 (http://creativecommons.org/licenses/by/4.0/)",
      "source": "https://sketchfab.com/3d-models/disney-infinity-dash-4712e82173a54de1837c84b00b8159d5",
      "title": "Disney Infinity Dash"
    },
    "generator": "Sketchfab-12.67.0",
    "version": "2.0"
  },
  "bufferViews": [
    {
      "buffer": 0,
      "byteLength": 114480,
      "name": "floatBufferViews",
      "target": 34963
    },
    {
      "buffer": 0,
      "byteLength": 49088,
      "byteOffset": 114480,
      "byteStride": 8,
      "name": "floatBufferViews",
      "target": 34962
    },
    {
      "buffer": 0,
      "byteLength": 147264,
      "byteOffset": 163568,
      "byteStride": 12,
      "name": "floatBufferViews",
      "target": 34962
    }
  ],
  "buffers": [
    {
      "byteLength": 310832,
      "uri": "scene.bin"
    }
  ],
  "images": [
    {
      "uri": "textures/Material__28_baseColor.png"
    },
    {
      "uri": "textures/Material__29_baseColor.png"
    }
  ],
  "materials": [
    {
      "doubleSided": true,
      "emissiveTexture": {
        "index": 0
      },
      "name": "Material__28",
      "pbrMetallicRoughness": {
        "baseColorTexture": {
          "index": 0
        },
        "metallicFactor": 0.0
      }
    },
    {
      "doubleSided": true,
      "emissiveTexture": {
        "index": 1
      },
      "name": "Material__29",
      "pbrMetallicRoughness": {
        "baseColorTexture": {
          "index": 1
        },
        "metallicFactor": 0.0
      }
    }
  ],
  "meshes": [
    {
      "name": "Object_0",
      "primitives": [
        {
          "attributes": {
            "NORMAL": 1,
            "POSITION": 0,
            "TEXCOORD_0": 2
          },
          "indices": 3,
          "material": 0,
          "mode": 4
        }
      ]
    },
    {
      "name": "Object_1",
      "primitives": [
        {
          "attributes": {
            "NORMAL": 5,
            "POSITION": 4,
            "TEXCOORD_0": 6
          },
          "indices": 7,
          "material": 0,
          "mode": 4
        }
      ]
    },
    {
      "name": "Object_2",
      "primitives": [
        {
          "attributes": {
            "NORMAL": 9,
            "POSITION": 8,
            "TEXCOORD_0": 10
          },
          "indices": 11,
          "material": 0,
          "mode": 4
        }
      ]
    },
    {
      "name": "Object_3",
      "primitives": [
        {
          "attributes": {
            "NORMAL": 13,
            "POSITION": 12,
            "TEXCOORD_0": 14
          },
          "indices": 15,
          "material": 1,
          "mode": 4
        }
      ]
    }
  ],
  "nodes": [
    {
      "children": [
        1
      ],
      "matrix": [
        1.0,
        0.0,
        0.0,
        0.0,
        0.0,
        2.220446049250313e-16,
        -1.0,
        0.0,
        0.0,
        1.0,
        2.220446049250313e-16,
        0.0,
        0.0,
        0.0,
        0.0,
        1.0
      ],
      "name": "Sketchfab_model"
    },
    {
      "children": [
        2,
        3,
        4,
        5
      ],
      "name": "Dash.obj.cleaner.materialmerger.gles"
    },
    {
      "mesh": 0,
      "name": "Object_2"
    },
    {
      "mesh": 1,
      "name": "Object_3"
    },
    {
      "mesh": 2,
      "name": "Object_4"
    },
    {
      "mesh": 3,
      "name": "Object_5"
    }
  ],
  "samplers": [
    {
      "magFilter": 9729,
      "minFilter": 9987,
      "wrapS": 10497,
      "wrapT": 10497
    }
  ],
  "scene": 0,
  "scenes": [
    {
      "name": "Sketchfab_Scene",
      "nodes": [
        0
      ]
    }
  ],
  "textures": [
    {
      "sampler": 0,
      "source": 0
    },
    {
      "sampler": 0,
      "source": 1
    }
  ]
}
