{
  "accessors": [
    {
      "bufferView": 2,
      "componentType": 5126,
      "count": 2130,
      "max": [
        53.71630096435547,
        41.65919876098633,
        202.9971923828125
      ],
      "min": [
        -58.27669906616211,
        -32.226200103759766,
        8.336400032043457
      ],
      "type": "VEC3"
    },
    {
      "bufferView": 2,
      "byteOffset": 25560,
      "componentType": 5126,
      "count": 2130,
      "max": [
        0.9992289543151855,
        0.998466432094574,
        0.9995772242546082
      ],
      "min": [
        -0.9986624121665955,
        -0.9998736381530762,
        -0.9995294213294983
      ],
      "type": "VEC3"
    },
    {
      "bufferView": 1,
      "componentType": 5126,
      "count": 2130,
      "max": [
        0.9916999936103821,
        0.9879999756813049
      ],
      "min": [
        0.011900000274181366,
        0.01510000042617321
      ],
      "type": "VEC2"
    },
    {
      "bufferView": 0,
      "componentType": 5125,
      "count": 9999,
      "type": "SCALAR"
    },
    {
      "bufferView": 2,
      "byteOffset": 51120,
      "componentType": 5126,
      "count": 2164,
      "max": [
        66.14399719238281,
        25.753599166870117,
        202.9971923828125
      ],
      "min": [
        -65.57949829101563,
        -32.67610168457031,
        0.013000000268220901
      ],
      "type": "VEC3"
    },
    {
      "bufferView": 2,
      "byteOffset": 77088,
      "componentType": 5126,
      "count": 2164,
      "max": [
        1.0,
        0.9999539852142334,
        1.0
      ],
      "min": [
        -1.0,
        -0.9998225569725037,
        -1.0
      ],
      "type": "VEC3"
    },
    {
      "bufferView": 1,
      "byteOffset": 17040,
      "componentType": 5126,
      "count": 2164,
      "max": [
        0.9818999767303467,
        0.9929999709129333
      ],
      "min": [
        0.0031999999191612005,
        0.005900000222027302
      ],
      "type": "VEC2"
    },
    {
      "bufferView": 0,
      "byteOffset": 39996,
      "componentType": 5125,
      "count": 9999,
      "type": "SCALAR"
    },
    {
      "bufferView": 2,
      "byteOffset": 103056,
      "componentType": 5126,
      "count": 1099,
      "max": [
        55.91019821166992,
        25.753599166870117,
        151.54200744628906
      ],
      "min": [
        -66.14399719238281,
        -35.46989822387695,
        29.105499267578125
      ],
      "type": "VEC3"
    },
    {
      "bufferView": 2,
      "byteOffset": 116244,
      "componentType": 5126,
      "count": 1099,
      "max": [
        1.0,
        0.9999539852142334,
        0.9413801431655884
      ],
      "min": [
        -1.0,
        -0.9998225569725037,
        -0.9961384534835815
      ],
      "type": "VEC3"
    },
    {
      "bufferView": 1,
      "byteOffset": 34352,
      "componentType": 5126,
      "count": 1099,
      "max": [
        0.9878000020980835,
        0.974399983882904
      ],
      "min": [
        0.20559999346733093,
        0.11330000311136246
      ],
      "type": "VEC2"
    },
    {
      "bufferView": 0,
      "byteOffset": 79992,
      "componentType": 5125,
      "count": 4818,
      "type": "SCALAR"
    },
    {
      "bufferView": 2,
      "byteOffset": 129432,
      "componentType": 5126,
      "count": 1660,
      "max": [
        47.88169860839844,
        59.02479934692383,
        277.5504150390625
      ],
      "min": [
        -49.581600189208984,
        -29.33049964904785,
        157.5894012451172
      ],
      "type": "VEC3"
    },
    {
      "bufferView": 2,
      "byteOffset": 149352,
      "componentType": 5126,
      "count": 1660,
      "max": [
        0.9994972348213196,
        0.9993686676025391,
        0.999987006187439
      ],
      "min": [
        -0.9995684027671814,
        -0.9985787272453308,
        -0.9999649524688721
      ],
      "type": "VEC3"
    },
    {
      "bufferView": 1,
      "byteOffset": 43144,
      "componentType": 5126,
      "count": 1660,
      "max": [
        -0.011900000274181366,
        -0.009800000116229057
      ],
      "min": [
        -1.0,
        -1.0
      ],
      "type": "VEC2"
    },
    {
      "bufferView": 0,
      "byteOffset": 99264,
      "componentType": 5125,
      "count": 7875,
      "type": "SCALAR"
    },
    {
      "bufferView": 2,
      "byteOffset": 169272,
      "componentType": 5126,
      "count": 139,
      "max": [
        9.095199584960938,
        -24.031299591064453,
        172.86509704589844
      ],
      "min": [
        -9.20680046081543,
        -26.96500015258789,
        168.64549255371094
      ],
      "type": "VEC3"
    },
    {
      "bufferView": 2,
      "byteOffset": 170940,
      "componentType": 5126,
      "count": 139,
      "max": [
        0.9778897762298584,
        -0.19809792935848236,
        0.13509860634803772
      ],
      "min": [
        -0.9463453888893127,
        -0.9947189688682556,
        -0.42489296197891235
      ],
      "type": "VEC3"
    },
    {
      "bufferView": 1,
      "byteOffset": 56424,
      "componentType": 5126,
      "count": 139,
      "max": [
        0.9125999808311462,
        -0.3515999913215637
      ],
      "min": [
        0.07739999890327454,
        -0.7656000256538391
      ],
      "type": "VEC2"
    },
    {
      "bufferView": 0,
      "byteOffset": 130764,
      "componentType": 5125,
      "count": 768,
      "type": "SCALAR"
    }
  ],
  "asset": {
    "extras": {
      "author": "Neut2000 (https://sketchfab.com/Neut2000)",
      "license": "CC-BY-4.0 (http://creativecommons.org/licenses/by/4.0/)",
      "source": "https://sketchfab.com/3d-models/disney-infinity-syndrome-36335f8f08334089a31bb656eca593aa",
      "title": "Disney Infinity Syndrome"
    },
    "generator": "Sketchfab-12.67.0",
    "version": "2.0"
  },
  "bufferViews": [
    {
      "buffer": 0,
      "byteLength": 133836,
      "name": "floatBufferViews",
      "target": 34963
    },
    {
      "buffer": 0,
      "byteLength": 57536,
      "byteOffset": 133836,
      "byteStride": 8,
      "name": "floatBufferViews",
      "target": 34962
    },
    {
      "buffer": 0,
      "byteLength": 172608,
      "byteOffset": 191372,
      "byteStride": 12,
      "name": "floatBufferViews",
      "target": 34962
    }
  ],
  "buffers": [
    {
      "byteLength": 363980,
      "uri": "scene.bin"
    }
  ],
  "images": [
    {
      "uri": "textures/Material__48_baseColor.png"
    },
    {
      "uri": "textures/Material__49_baseColor.png"
    },
    {
      "uri": "textures/Material__50_baseColor.png"
    }
  ],
  "materials": [
    {
      "doubleSided": true,
      "emissiveTexture": {
        "index": 0
      },
      "name": "Material__48",
      "pbrMetallicRoughness": {
        "baseColorTexture": {
          "index": 0
        },
        "metallicFactor": 0.0
      }
    },
    {
      "doubleSided": true,
      "emissiveTexture": {
        "index": 1
      },
      "name": "Material__49",
      "pbrMetallicRoughness": {
        "baseColorTexture": {
          "index": 1
        },
        "metallicFactor": 0.0
      }
    },
    {
      "doubleSided": true,
      "emissiveTexture": {
        "index": 2
      },
      "name": "Material__50",
      "pbrMetallicRoughness": {
        "baseColorTexture": {
          "index": 2
        },
        "metallicFactor": 0.0
      }
    }
  ],
  "meshes": [
    {
      "name": "Object_0",
      "primitives": [
        {
          "attributes": {
            "NORMAL": 1,
            "POSITION": 0,
            "TEXCOORD_0": 2
          },
          "indices": 3,
          "material": 0,
          "mode": 4
        }
      ]
    },
    {
      "name": "Object_1",
      "primitives": [
        {
          "attributes": {
            "NORMAL": 5,
            "POSITION": 4,
            "TEXCOORD_0": 6
          },
          "indices": 7,
          "material": 0,
          "mode": 4
        }
      ]
    },
    {
      "name": "Object_2",
      "primitives": [
        {
          "attributes": {
            "NORMAL": 9,
            "POSITION": 8,
            "TEXCOORD_0": 10
          },
          "indices": 11,
          "material": 0,
          "mode": 4
        }
      ]
    },
    {
      "name": "Object_3",
      "primitives": [
        {
          "attributes": {
            "NORMAL": 13,
            "POSITION": 12,
            "TEXCOORD_0": 14
          },
          "indices": 15,
          "material": 1,
          "mode": 4
        }
      ]
    },
    {
      "name": "Object_4",
      "primitives": [
        {
          "attributes": {
            "NORMAL": 17,
            "POSITION": 16,
            "TEXCOORD_0": 18
          },
          "indices": 19,
          "material": 2,
          "mode": 4
        }
      ]
    }
  ],
  "nodes": [
    {
      "children": [
        1
      ],
      "matrix": [
        1.0,
        0.0,
        0.0,
        0.0,
        0.0,
        2.220446049250313e-16,
        -1.0,
        0.0,
        0.0,
        1.0,
        2.220446049250313e-16,
        0.0,
        0.0,
        0.0,
        0.0,
        1.0
      ],
      "name": "Sketchfab_model"
    },
    {
      "children": [
        2,
        3,
        4,
        5,
        6
      ],
      "name": "Syndrome.obj.cleaner.materialmerger.gles"
    },
    {
      "mesh": 0,
      "name": "Object_2"
    },
    {
      "mesh": 1,
      "name": "Object_3"
    },
    {
      "mesh": 2,
      "name": "Object_4"
    },
    {
      "mesh": 3,
      "name": "Object_5"
    },
    {
      "mesh": 4,
      "name": "Object_6"
    }
  ],
  "samplers": [
    {
      "magFilter": 9729,
      "minFilter": 9987,
      "wrapS": 10497,
      "wrapT": 10497
    }
  ],
  "scene": 0,
  "scenes": [
    {
      "name": "Sketchfab_Scene",
      "nodes": [
        0
      ]
    }
  ],
  "textures": [
    {
      "sampler": 0,
      "source": 0
    },
    {
      "sampler": 0,
      "source": 1
    },
    {
      "sampler": 0,
      "source": 2
    }
  ]
}
